# xmcd CD database file
#
# Track frame offsets:
#	150
#	62140
#	130312
#	170732
#	204998
#	222959
#	250110
#	275560
#	304749
#	340290
#
# Disc length: 4654 seconds
#
# Revision: 1
# Processed by: cddbd v1.5.2PL0 Copyright (c) Steve Scherf et al.
# Submitted via: CDex 1.51
#
DISCID=9b122c0a
DTITLE=Jaco Pastorius - Broadway Blues
DYEAR=1986
DGENRE=Jazz
TTITLE0=Bluma
TTITLE1=Beza
TTITLE2=Broadway Blues
TTITLE3=Teresa
TTITLE4=Jaco Reggae
TTITLE5=Chicken
TTITLE6=Medley Donna Lee
TTITLE7=Berga
TTITLE8=The Days Of Wine And Roses
TTITLE9=Stuttgat
EXTD=YEAR: 1986
EXTT0=
EXTT1=
EXTT2=
EXTT3=
EXTT4=
EXTT5=
EXTT6=
EXTT7=
EXTT8=
EXTT9=
PLAYORDER=
